<?xml version="1.0" encoding="iso-8859-1"?>
<!-- Generator: Adobe Illustrator 23.0.6, SVG Export Plug-In . SVG Version: 6.00 Build 0)  -->
<svg version="1.1" id="Layer_1" xmlns="http://www.w3.org/2000/svg" xmlns:xlink="http://www.w3.org/1999/xlink" x="0px" y="0px"
	 width="31.938px" height="31.939px" viewBox="0 0 31.938 31.939" enable-background="new 0 0 31.938 31.939" xml:space="preserve">
<g>
	<path fill="#231039" d="M19.744,0C13.02,0,7.55,5.47,7.55,12.194c0,3.047,1.131,5.829,2.985,7.968L8.95,20.692l-8.508,8.507
		l0.004,0.004c-0.602,0.636-0.595,1.639,0.029,2.262c0.623,0.623,1.625,0.631,2.262,0.029l0.003,0.003l0.029-0.029
		c0.001-0.001,0.002-0.002,0.003-0.003s0.002-0.002,0.003-0.003l8.473-8.472l0.528-1.586c2.14,1.854,4.922,2.984,7.968,2.984
		c6.724,0,12.194-5.47,12.194-12.194C31.938,5.47,26.468,0,19.744,0z M19.744,21.568c-5.169,0-9.374-4.205-9.374-9.374
		c0-5.169,4.205-9.374,9.374-9.374c5.168,0,9.374,4.205,9.374,9.374C29.118,17.363,24.913,21.568,19.744,21.568z"/>
	<path fill="#231039" d="M20.263,5.72c-3.778,0-6.852,3.074-6.852,6.852c0,0.389,0.316,0.705,0.705,0.705s0.705-0.316,0.705-0.705
		c0-3,2.441-5.442,5.442-5.442c0.389,0,0.705-0.316,0.705-0.705S20.652,5.72,20.263,5.72z"/>
</g>
<g>
</g>
<g>
</g>
<g>
</g>
<g>
</g>
<g>
</g>
<g>
</g>
</svg>
