<?xml version="1.0" encoding="iso-8859-1"?>
<!-- Generator: Adobe Illustrator 23.0.6, SVG Export Plug-In . SVG Version: 6.00 Build 0)  -->
<svg version="1.1" id="Layer_1" xmlns="http://www.w3.org/2000/svg" xmlns:xlink="http://www.w3.org/1999/xlink" x="0px" y="0px"
	 width="96.431px" height="56.197px" viewBox="0 0 96.431 56.197" enable-background="new 0 0 96.431 56.197" xml:space="preserve">
<g>
	<g>
	</g>
	<g>
	</g>
	<g>
		<path fill="#231039" d="M41.051,24.259c-6.724,0-12.194,5.47-12.194,12.194c0,3.047,1.131,5.829,2.985,7.969l-1.585,0.529
			l-8.508,8.507l0.004,0.004c-0.602,0.636-0.595,1.638,0.029,2.262c0.623,0.623,1.625,0.631,2.262,0.029l0.003,0.003l0.029-0.029
			c0.001-0.001,0.003-0.002,0.004-0.003s0.002-0.003,0.003-0.004l8.472-8.471l0.528-1.586c2.14,1.854,4.922,2.984,7.968,2.984
			c6.724,0,12.194-5.47,12.194-12.194C53.246,29.729,47.775,24.259,41.051,24.259z M41.051,45.827c-5.169,0-9.374-4.205-9.374-9.374
			c0-5.168,4.205-9.374,9.374-9.374s9.374,4.205,9.374,9.374C50.425,41.622,46.22,45.827,41.051,45.827z"/>
		<path fill="#231039" d="M10.501,7.598c0-2.492-1.768-4.494-4.623-4.494H0.191v15.103H2.3v-6.178h2.258l3.451,6.178h2.428
			l-3.6-6.326C9.117,11.453,10.501,9.771,10.501,7.598z M5.496,10.154H2.3V4.978h3.195C7.2,4.978,8.35,6,8.35,7.598
			C8.35,9.153,7.2,10.154,5.496,10.154z"/>
		<path fill="#231039" d="M23.541,14.095c0-1.683-1.001-3.216-2.727-3.643c1.321-0.489,2.258-1.64,2.258-3.259
			c0-2.386-1.683-4.09-4.558-4.09h-4.921v15.103h5.283C21.646,18.206,23.541,16.481,23.541,14.095z M15.681,4.936h2.514
			c1.726,0,2.77,0.938,2.77,2.364c0,1.406-1.001,2.407-2.684,2.407h-2.599V4.936z M15.681,16.374v-4.878h2.982
			c1.832,0,2.748,1.022,2.748,2.471c0,1.47-1.15,2.407-2.833,2.407H15.681z"/>
		<path fill="#231039" d="M28.358,13.988h6.688l1.64,4.218h2.258L32.938,3.104h-2.407l-6.007,15.103h2.237L28.358,13.988z
			 M31.681,5.276l2.62,6.773h-5.197L31.681,5.276z"/>
		<path fill="#231039" d="M47.32,16.609c-2.748,0-5.368-2.023-5.368-5.964c0-3.941,2.62-5.943,5.368-5.943
			c2.471,0,4.132,1.278,4.708,3.558l1.938-0.682c-0.767-2.919-3.195-4.793-6.646-4.793c-3.749,0-7.498,2.812-7.498,7.86
			c0,5.048,3.6,7.881,7.498,7.881c3.472,0,5.858-2.023,6.667-4.856l-1.854-0.682C51.516,15.054,49.897,16.609,47.32,16.609z"/>
		<polygon fill="#231039" points="2.939,24.41 0,24.41 0,39.513 9.67,39.513 9.67,36.701 2.939,36.701 		"/>
		<path fill="#231039" d="M26.289,31.972c0-4.878-3.664-7.881-7.775-7.881c-4.09,0-7.754,3.003-7.754,7.881
			c0,4.857,3.664,7.86,7.754,7.86C22.625,39.832,26.289,36.829,26.289,31.972z M18.514,36.978c-2.322,0-4.708-1.618-4.708-5.026
			s2.386-5.027,4.708-5.027c2.343,0,4.729,1.619,4.729,5.027S20.857,36.978,18.514,36.978z"/>
		<polygon fill="#231039" points="68.774,24.41 64.918,24.41 58.869,31.248 58.869,24.41 55.93,24.41 55.93,39.513 58.869,39.513 
			58.869,35.317 60.744,33.25 65.132,39.513 68.817,39.513 62.789,30.992 		"/>
		<path fill="#231039" d="M79.386,33.953c0,1.98-1.086,3.024-2.876,3.024c-1.747,0-2.854-1.044-2.854-3.024V24.41h-2.94v9.756
			c0,3.706,2.578,5.688,5.794,5.688c3.238,0,5.815-1.981,5.815-5.688V24.41h-2.939V33.953z"/>
		<path fill="#231039" d="M91.467,24.41h-5.645v15.103h2.939v-5.688h2.705c2.982,0,4.963-1.96,4.963-4.708
			C96.431,26.391,94.45,24.41,91.467,24.41z M91.105,31.29h-2.322v-4.324h2.322c1.47,0,2.364,0.831,2.364,2.173
			C93.47,30.439,92.575,31.29,91.105,31.29z"/>
		<path fill="#231039" d="M41.569,29.979c-3.778,0-6.852,3.074-6.852,6.852c0,0.389,0.316,0.705,0.705,0.705
			s0.705-0.316,0.705-0.705c0-3,2.441-5.442,5.442-5.442c0.389,0,0.705-0.316,0.705-0.705S41.958,29.979,41.569,29.979z"/>
	</g>
</g>
<g>
</g>
<g>
</g>
<g>
</g>
<g>
</g>
<g>
</g>
<g>
</g>
</svg>
